<svg preserveAspectRatio="none" width="100%" height="100%" overflow="visible" style="display: block;" viewBox="0 0 47 52" fill="none" xmlns="http://www.w3.org/2000/svg">
<path id="Vector 9" d="M28.9326 20.464C28.9326 20.4725 28.9326 20.481 26.1864 20.7162C23.4403 20.9514 17.9479 21.413 14.9492 21.5705C11.9505 21.728 11.612 21.5675 11.4395 21.2228C11.043 20.4304 11.926 18.781 13.623 16.5295C14.5888 15.2482 16.0903 13.9405 17.7703 12.5451C19.4504 11.1497 21.3462 9.77146 23.4239 8.46472C25.5016 7.15798 27.7038 5.96447 29.779 4.97846C33.6779 3.12592 37.0706 2.1554 39.6754 1.59453C41.8397 1.12853 43.481 1.18612 44.5924 1.46656C45.118 1.59917 45.4593 2.02364 45.487 3.14927C45.5148 4.2749 45.1915 6.1685 44.4315 8.15321C43.6715 10.1379 42.4847 12.1564 39.5865 15.8353C36.6884 19.5142 32.115 24.7924 26.245 30.3551C20.375 35.9179 13.347 41.6052 8.92529 44.9946C4.5036 48.384 2.90118 49.3031 1.25021 50.25" stroke="var(--stroke-0, black)" stroke-width="2.5" stroke-linecap="round"/>
</svg>
