<svg preserveAspectRatio="none" width="100%" height="100%" overflow="visible" style="display: block;" viewBox="0 0 27 30" fill="none" xmlns="http://www.w3.org/2000/svg">
<path id="Vector 9" d="M16.4368 11.7294C16.4368 11.7343 16.4368 11.7391 14.8806 11.8735C13.3245 12.0079 10.2121 12.2717 8.51289 12.3617C6.81365 12.4517 6.6218 12.36 6.52407 12.163C6.29937 11.7102 6.79974 10.7677 7.7614 9.48115C8.30868 8.74897 9.1595 8.00171 10.1115 7.20433C11.0635 6.40695 12.1378 5.61941 13.3152 4.8727C14.4926 4.12599 15.7405 3.44398 16.9164 2.88055C19.1258 1.82195 21.0483 1.26737 22.5244 0.946877C23.7508 0.680587 24.6809 0.713499 25.3107 0.873751C25.6085 0.949525 25.8019 1.19208 25.8177 1.8353C25.8334 2.47852 25.6502 3.56057 25.2195 4.69469C24.7889 5.82882 24.1163 6.98222 22.474 9.08445C20.8318 11.1867 18.2402 14.2028 14.9138 17.3815C11.5875 20.5602 7.60496 23.8101 5.09934 25.7469C2.59371 27.6837 1.68567 28.2089 0.750125 28.75" stroke="var(--stroke-0, black)" stroke-width="1.5" stroke-linecap="round"/>
</svg>
